<?xml version="1.0" encoding="UTF-8"?><svg id="Livello_2" xmlns="http://www.w3.org/2000/svg" viewBox="0 0 63.27 24.33"><defs><style>.cls-1{fill:#fff;}</style></defs><g id="Livello_1-2"><path class="cls-1" d="M5.37,19.2h.8v3.82h-.01l-2.43-3.92H0v.1h.8v4.92H0v.1h3.88v-.1h-.8v-4.63h.01l3.03,4.83h.14v-5.13h.8v-.1h-1.71v.1ZM2.98,24.12h-1.45v-4.92h1.45v4.92Z"/><path class="cls-1" d="M20.36,24.12h-1.39v-2.6h.6c.65,0,.79.52.91,1.08h.08v-2.24h-.08c-.19.77-.36,1.06-1.02,1.06h-.5v-2.22h1.21c.66,0,1.04.28,1.31,1.14h.08v-1.25h-4.02s-2.32,0-2.32,0v.1h.8v2.35h-2.4v-2.35h.8v-.1h-2.32s-4.33,0-4.33,0v1.32h.08c.25-.85.61-1.22,1.3-1.22h.45v4.92h-.8v.1h2.32v-.1h-.8v-4.92h.44c.62,0,1.04.27,1.31,1.22h.08v-1.22h.76v4.92h-.8v.1h2.32v-.1h-.8v-2.47h2.4v2.47h-.8v.1h2.32s4.29,0,4.29,0v-1.58h-.08c-.14.89-.68,1.48-1.4,1.48ZM18.25,24.12h-.8s-.7,0-.7,0v-4.92h.8s.7,0,.7,0v4.92Z"/><path class="cls-1" d="M26.74,21.51c-.27-.13-.55-.2-.87-.3-.25-.08-.58-.17-.9-.3-.39-.16-.66-.41-.66-.85,0-.66.56-.99,1.19-.99.7,0,1.22.49,1.36,1.33h.09v-1.3h-.1c-.06.12-.08.15-.22.15-.25,0-.48-.28-1.13-.28-.91,0-1.58.63-1.58,1.51,0,.76.53,1.05,1.16,1.26.29.09.58.17.86.26.53.17.96.47.96,1.07,0,.52-.3,1.16-1.3,1.16-.74,0-1.42-.16-1.73-1.56h-.08v1.55h.11c.05-.12.08-.16.22-.16.35,0,.53.27,1.48.27,1.15,0,1.85-.78,1.85-1.7,0-.59-.31-.93-.71-1.12Z"/><path class="cls-1" d="M29.88,19.07c-.24,0-.68.02-.75.02h-1.4v.1h.8v4.92h-.8v.1h2.32v-.1h-.8v-2.38c.18.03.4.06.55.06,1.1,0,1.99-.54,1.99-1.36s-.78-1.37-1.91-1.37ZM29.83,21.7c-.17,0-.39-.02-.58-.06v-2.45c.14-.01.29-.02.42-.02,1.04,0,1.29.4,1.29,1.27s-.42,1.26-1.13,1.26Z"/><path class="cls-1" d="M34.64,18.97c-1.24,0-2.51,1.21-2.51,2.69s1.09,2.68,2.51,2.68,2.51-1.28,2.51-2.68c0-1.48-1.19-2.69-2.51-2.69ZM34.64,24.23c-1.15,0-1.68-.72-1.68-2.58s.6-2.58,1.67-2.58c1.15,0,1.68.81,1.68,2.59s-.53,2.57-1.68,2.57Z"/><path class="cls-1" d="M44.45,24.12h-1.3v-4.92h.8v-.1h-6.65v1.32h.08c.25-.85.61-1.22,1.3-1.22h.45v4.92h-.8v.1h2.32v-.1h-.8v-4.92h.44c.62,0,1.04.27,1.31,1.22h.08v-1.22h.76v4.92h-.8v.1h4.4v-1.58h-.08c-.23.96-.73,1.48-1.5,1.48Z"/><polygon class="cls-1" points="46.06 19.2 46.86 19.2 46.86 24.12 46.06 24.12 46.06 24.22 48.38 24.22 48.38 24.12 47.58 24.12 47.58 19.2 48.38 19.2 48.38 19.09 46.06 19.09 46.06 19.2"/><path class="cls-1" d="M53.66,22.28h-2.2v.1h.93v.63c0,.67-.46,1.22-1.3,1.22s-1.21-.5-1.41-1.02c-.14-.35-.21-.86-.21-1.6,0-1.71.54-2.55,1.68-2.55.89,0,1.43.55,1.58,1.47h.08v-1.44h-.11c-.09.12-.15.15-.32.15-.33,0-.51-.28-1.2-.28-.65,0-1.14.22-1.56.58-.6.52-.98,1.25-.98,2.14,0,.72.31,1.4.81,1.91.42.43.94.73,1.64.73,1.04,0,1.22-.45,1.63-.45.13,0,.16.02.27.14h.09v-1.63h.58v-.1Z"/><path class="cls-1" d="M58.93,19.09h-2.32v.1h.8v2.35h-2.4v-2.35h.8v-.1h-2.32v.1h.8v4.92h-.8v.1h2.32v-.1h-.8v-2.47h2.4v2.47h-.8v.1h2.32v-.1h-.8v-4.92h.76v1.22h.08c.25-.85.61-1.22,1.3-1.22h.45v4.92h-.8v.1h2.32v-.1h-.8v-4.92h.44c.62,0,1.04.27,1.31,1.22h.08v-1.32h-4.33Z"/><path class="cls-1" d="M63.27.93v-.3h-6.89v.3h1.14v10.78L50.51.63h-3.01v.3h1.14v13.63h-1.9L41.85,0l-5.04,14.56h-1.79V.93h1.04v-.3h-2.72l-3.87,11.37L25.41.63h-2.76v.3h1.14v13.63h-2.09c-.72,0-1.31-.64-1.31-1.65v-2.12c0-1.75-.61-3.14-2.56-3.44,1.62-.22,2.81-1.67,2.81-3.22,0-1.98-1.47-3.51-4.39-3.51h-4.34v.3h1.14v13.63h-2.18L5.98,0,.94,14.56h-.94v.3h2.6v-.3h-1.31l1.51-4.42h4.78l1.46,4.42h-1.79v.3h9.19v-.3h-1.76v-7.06h1.29c1.77,0,2.7.72,2.7,2.49v1.24c0,2.92,1.88,3.63,2.89,3.63h3.77v-.3h-1.24V1.95l4.77,13.06,4.52-13.49v13.04h-1.14v.3h6.23v-.3h-1.31l1.51-4.42h4.78l1.46,4.42h-1.79v.3h6.96v-.3h-1.14V1.4l8.89,13.95V.93h2.67v13.63h-1.14v.3h3.92v-.3h-1.14V.93h1.14ZM2.9,9.84l2.33-6.81,2.25,6.81H2.9ZM15.96,7.21h-1.29V.93h1.09c1.8,0,3.01,1.17,3.01,3.29,0,1.17-.91,2.99-2.81,2.99ZM38.77,9.84l2.33-6.81,2.25,6.81h-4.57Z"/></g></svg>