<?xml version="1.0" encoding="UTF-8"?><svg id="Livello_2" xmlns="http://www.w3.org/2000/svg" viewBox="0 0 632.66 53.64"><defs><style>.cls-1{fill:#fff;}</style></defs><g id="Lager_1"><path class="cls-1" d="M53.63,2.31h7.99v38.22h-.14L37.15,1.3H0v1.01h7.99v49.24H0v1.01h38.8v-1.01h-7.99V5.26h.15l30.31,48.31h1.44V2.31h7.99v-1.01h-17.06v1.01ZM29.74,51.55h-14.55V2.31h14.55v49.24Z"/><path class="cls-1" d="M203.61,51.55h-13.89v-25.99h6.05c6.48,0,7.92,5.18,9.14,10.8h.79V13.97h-.79c-1.87,7.7-3.6,10.58-10.22,10.58h-4.97V2.31h12.09c6.62,0,10.44,2.81,13.1,11.45h.79V1.3h-40.18s-23.18,0-23.18,0v1.01h7.99v23.54h-23.97V2.31h7.99v-1.01h-23.18s-43.35,0-43.35,0v13.18h.79c2.52-8.5,6.12-12.17,13.03-12.17h4.46v49.24h-7.99v1.01h23.18v-1.01h-7.99V2.31h4.39c6.19,0,10.36,2.73,13.1,12.17h.79V2.31h7.56v49.24h-7.99v1.01h23.18v-1.01h-7.99v-24.69h23.97v24.69h-7.99v1.01h23.18s42.91,0,42.91,0v-15.77h-.79c-1.44,8.93-6.76,14.76-14.04,14.76ZM182.52,51.55h-7.99s-6.99,0-6.99,0V2.31h7.99s6.99,0,6.99,0v49.24Z"/><path class="cls-1" d="M267.33,25.41c-2.66-1.3-5.47-2.02-8.71-3.02-2.52-.79-5.83-1.73-9-3.02-3.89-1.58-6.62-4.11-6.62-8.5,0-6.55,5.61-9.86,11.88-9.86,6.98,0,12.16,4.9,13.6,13.32h.87V1.3h-1.01c-.65,1.22-.79,1.51-2.16,1.51-2.52,0-4.83-2.81-11.3-2.81-9.14,0-15.77,6.27-15.77,15.12,0,7.63,5.33,10.51,11.59,12.6,2.88.94,5.83,1.73,8.57,2.59,5.33,1.73,9.57,4.68,9.57,10.73,0,5.18-2.95,11.59-12.96,11.59-7.41,0-14.18-1.59-17.28-15.55h-.79v15.48h1.08c.5-1.15.79-1.58,2.16-1.58,3.45,0,5.33,2.66,14.83,2.66,11.52,0,18.5-7.85,18.5-16.99,0-5.9-3.09-9.29-7.06-11.23Z"/><path class="cls-1" d="M298.73,1.08c-2.38,0-6.84.22-7.49.22h-13.96v1.01h7.99v49.24h-7.99v1.01h23.18v-1.01h-7.99v-23.76c1.8.29,4.03.58,5.47.58,11.01,0,19.94-5.4,19.94-13.61s-7.78-13.68-19.15-13.68ZM298.29,27.36c-1.66,0-3.89-.21-5.83-.57V2.31c1.37-.15,2.88-.22,4.25-.22,10.37,0,12.89,3.96,12.89,12.67s-4.17,12.6-11.3,12.6Z"/><path class="cls-1" d="M346.39,0c-12.38,0-25.05,12.09-25.05,26.85s10.94,26.78,25.05,26.78,25.05-12.81,25.05-26.78C371.44,12.03,359.56,0,346.39,0ZM346.39,52.63c-11.52,0-16.77-7.2-16.77-25.77s5.97-25.85,16.7-25.85c11.52,0,16.85,8.06,16.85,25.92s-5.26,25.7-16.78,25.7Z"/><path class="cls-1" d="M444.53,51.55h-12.96V2.31h7.99v-1.01h-66.53v13.18h.79c2.52-8.5,6.12-12.17,13.03-12.17h4.46v49.24h-7.99v1.01h23.18v-1.01h-7.99V2.31h4.39c6.19,0,10.36,2.73,13.1,12.17h.79V2.31h7.57v49.24h-7.99v1.01h43.99v-15.77h-.79c-2.3,9.65-7.27,14.76-15.05,14.76Z"/><polygon class="cls-1" points="460.59 2.31 468.58 2.31 468.58 51.55 460.59 51.55 460.59 52.56 483.77 52.56 483.77 51.55 475.78 51.55 475.78 2.31 483.77 2.31 483.77 1.3 460.59 1.3 460.59 2.31"/><path class="cls-1" d="M536.54,33.19h-21.96v1.01h9.29v6.27c0,6.69-4.61,12.17-13.03,12.17s-12.09-5.04-14.11-10.15c-1.37-3.45-2.09-8.57-2.09-15.98,0-17.14,5.4-25.49,16.85-25.49,8.93,0,14.33,5.47,15.84,14.69h.79V1.3h-1.08c-.94,1.15-1.51,1.51-3.24,1.51-3.31,0-5.11-2.81-12.02-2.81-6.48,0-11.45,2.23-15.62,5.83-6.05,5.18-9.79,12.45-9.79,21.38,0,7.2,3.1,14.03,8.06,19.08,4.25,4.32,9.36,7.34,16.41,7.34,10.37,0,12.24-4.46,16.34-4.46,1.3,0,1.59.22,2.74,1.36h.86v-16.34h5.76v-1.01Z"/><path class="cls-1" d="M589.32,1.3h-23.18v1.01h7.99v23.54h-23.97V2.31h7.99v-1.01h-23.18v1.01h7.99v49.24h-7.99v1.01h23.18v-1.01h-7.99v-24.69h23.97v24.69h-7.99v1.01h23.18v-1.01h-7.99V2.31h7.57v12.16h.79c2.52-8.5,6.12-12.17,13.03-12.17h4.46v49.24h-7.99v1.01h23.18v-1.01h-7.99V2.31h4.39c6.19,0,10.36,2.73,13.1,12.17h.79V1.3h-43.34Z"/></g></svg>