<?xml version="1.0" encoding="UTF-8"?>
<svg id="Livello_2" xmlns="http://www.w3.org/2000/svg" version="1.1" viewBox="0 0 116.5 26.3">
  <!-- Generator: Adobe Illustrator 30.1.0, SVG Export Plug-In . SVG Version: 2.1.1 Build 136)  -->
  <defs>
    <style>
      .st0 {
        fill: #191219;
      }
    </style>
  </defs>
  <g id="Grafica">
    <path class="st0" d="M113.5,3c.3.1.6.2,1,.2s.7,0,1-.2c.3-.1.5-.4.7-.6s.2-.7.2-1.1V0h-3.8v1.2c0,.5,0,.8.2,1.1s.4.5.7.6ZM113.1.6h2.9v.7c0,.4,0,.6-.2.8-.1.2-.3.4-.5.5-.2,0-.5.1-.8.1s-.6,0-.8-.1c-.2,0-.4-.2-.5-.5-.1-.2-.2-.5-.2-.8v-.7h0Z"/>
    <polygon class="st0" points="113.1 5.9 114.3 5.9 114.3 7.6 114.8 7.6 114.8 5.9 116 5.9 116 7.8 116.4 7.8 116.4 5.4 112.6 5.4 112.6 7.8 113.1 7.8 113.1 5.9"/>
    <path class="st0" d="M113.1,12.4c.2.1.3.1.5.1s.4,0,.5-.1.3-.2.3-.4c0-.1.2-.3.2-.5,0-.1,0-.3.1-.4s0-.2.1-.3c0-.1.1-.2.2-.2s.2,0,.3,0,.2,0,.3,0,.2.1.2.2c0,.1,0,.2,0,.3s0,.3,0,.4-.1.2-.2.2c0,0-.2,0-.3,0v.6c.2,0,.4,0,.6-.2.2-.1.3-.2.4-.4,0-.2.1-.4.1-.6s0-.5-.1-.7-.2-.3-.4-.4-.3-.1-.6-.1-.5,0-.6.2c-.2.1-.3.4-.4.7,0,.1,0,.3-.1.4s0,.3-.2.4c0,.1-.1.2-.2.2,0,0-.2.1-.3.1s-.2,0-.3,0-.2-.1-.2-.2,0-.2,0-.4,0-.3,0-.4c0-.1.2-.2.3-.3.1,0,.2-.1.4-.1v-.6c-.2,0-.5,0-.6.2s-.3.3-.4.5-.2.5-.2.7,0,.5.2.7c0,.2.2.3.4.4Z"/>
    <rect class="st0" x="112.6" y="14.7" width="3.8" height=".6"/>
    <path class="st0" d="M115.5,17.6c-.3-.1-.7-.2-1-.2s-.7,0-1,.2-.5.4-.7.6c-.2.3-.2.6-.2,1s0,.4,0,.5c0,.2.1.3.2.4s.2.2.4.3h-.6v.5h2.1v-1.6h-.4v1c-.4,0-.7-.1-.9-.3s-.3-.5-.3-.9,0-.5.2-.7c.1-.2.3-.3.5-.5s.5-.2.8-.2.6,0,.8.2.4.3.5.5c.1.2.2.4.2.7s0,.5-.2.7-.3.3-.5.3v.6c.4,0,.7-.3.9-.6s.3-.6.3-1.1,0-.7-.2-1-.4-.5-.7-.6h0Z"/>
    <polygon class="st0" points="112.6 23.8 115.5 23.8 112.6 25.7 112.6 26.3 116.4 26.3 116.4 25.7 113.5 25.7 116.4 23.8 116.4 23.2 112.6 23.2 112.6 23.8"/>
    <path class="st0" d="M71.4,12.3c-3.3-.5-4.2-1.4-4.2-3.1s1.4-3,3.8-3,3.6,1,4,3h1.1c-.3-2.5-2.2-4-5.1-4s-5,1.7-5,4.1,1.7,3.7,5.1,4.2c3.2.5,4.2,1.3,4.2,3.5s-1.6,3.4-4.1,3.4-4.4-1.7-4.7-3.7h-1.2c.3,2.6,2,4.7,5.9,4.7s5.3-2,5.3-4.5-1.7-4-5.2-4.5h0Z"/>
    <path class="st0" d="M83.8,12.3c-3.3-.5-4.2-1.4-4.2-3.1s1.4-3,3.8-3,3.6,1,4,3h1.1c-.3-2.5-2.2-4-5.1-4s-5,1.7-5,4.1,1.7,3.7,5.1,4.2c3.2.5,4.2,1.3,4.2,3.5s-1.6,3.4-4.1,3.4-4.4-1.7-4.7-3.7h-1.2c.3,2.6,2,4.7,5.9,4.7s5.3-2,5.3-4.5-1.7-4-5.2-4.5h0Z"/>
    <polygon class="st0" points="92.9 13.5 99.3 13.5 99.3 12.4 92.9 12.4 92.9 6.3 100.8 6.3 100.8 5.2 91.7 5.2 91.7 21.1 101.2 21.1 101.2 20.1 92.9 20.1 92.9 13.5"/>
    <path class="st0" d="M49.3,15.6c-.3-.4-.7-.8-1-1.2,1.8-1.4,2.9-2.2,2.5-5.4-.2-1.7-1.6-2.8-3.2-3.2-1.7-.5-3.5-.4-5.2-.4h-5.9l4.3,15.9h1.1l-1.2-6.7h6.3l4.9,6.7h2c-1.1-1.3-2.2-2.7-3.3-4-.5-.6-1-1.1-1.5-1.7h0ZM46.6,13.6h-7.1v-.3c0,0-1.8-6.7-1.8-6.7h8c1.2,0,2.2.3,3,.8.8.6,1.2,1.3,1.2,2.3s-.2,2-.9,2.8c-.6.7-1.5,1-2.3,1Z"/>
    <polygon class="st0" points="64.6 5.5 58.3 13.8 51.8 5.5 51.1 5.5 57.7 14.9 57.7 21.4 58.9 21.4 58.8 14.9 65.5 5.5 64.6 5.5"/>
    <path class="st0" d="M32.8,5.5c-3.8,6.8-2.5,7.8-1.1,8.5.3.2.5.2.8.3,0,0,.5.1.5.3,0,0,0,0,0,0-.2,0-.4,0-.6,0-1.4,0-4.3.3-6.5,6.7h1.8c1.1-5,3.2-6.2,4.7-6.4.6,0,1,0,1-.5,0-.3-.3-.4-.7-.6-.2,0-.5-.2-.7-.3-1.1-.6-1.3-2,1.1-7l4.1,14.8h1.7l-5.2-15.9h-.7,0Z"/>
    <polygon class="st0" points="29 5.5 17 15 16.5 5.5 15.1 5.5 0 21.4 2.2 21.4 16 6.6 16.6 16.8 17 16.8 29.2 6.6 20.9 21.4 23.1 21.4 30.2 5.5 29 5.5"/>
  </g>
</svg>