<?xml version="1.0" encoding="UTF-8"?>
<svg id="Livello_1" xmlns="http://www.w3.org/2000/svg" version="1.1" viewBox="0 0 100 100">
  <!-- Generator: Adobe Illustrator 29.8.1, SVG Export Plug-In . SVG Version: 2.1.1 Build 2)  -->
  <defs>
    <style>
      .st0 {
        fill: #2b231f;
      }
    </style>
  </defs>
  <path class="st0" d="M85.5,18.3c-4.7-2.8-10.4-2.5-14.8.8-1.1.8-2,1.7-2.7,2.7-.7,1-1.3,2.1-1.7,3.1h-.2c-.7-3-2.2-5.2-4.5-6.5-2.3-1.3-4.9-2-7.9-2s-6.2.8-8.5,2.5c-2.4,1.7-4.2,4.3-5.4,7.9h-.2v-9.4l-29.8,2v1.3l25-2-18.1,63.7h-7.9v1.3h0s56.2,0,56.2,0c4,0,7.9,0,11.9,0,.8,0,1.5,0,2.3,0h8v-1.3h-14.2c5.7-16.4,11.6-33.6,17.3-50.1.4-1.2.6-1.7.8-3,.6-4.3-1.9-8.8-5.6-11ZM34.2,82.3h-10.8l17.6-55.5c.9-2.1,1.9-3.9,3.2-5.2,1.3-1.3,2.7-2.3,4.2-3,1.5-.6,2.9-.9,4.1-.9,1.8,0,3.2.6,4.3,1.9,1.1,1.3,1.6,3.2,1.6,5.8-3,9.5-6.1,19.1-9.1,28.6-2.9,9-5.8,18.1-8.8,27.1-.2.7-.7,1.1-1.3,1.3h-5.1ZM63.7,82.3c-5.2,0-10.2,0-15.4,0,5.6-17.7,10.6-33.7,16.7-50.9,1.1-3.2,2.3-6.3,4.3-9,2-2.7,5-4.8,8.4-4.9,3.4,0,5.5,2.7,5.6,6,0,1.2-.3,2.4-.7,3.5-5.8,18.5-11.5,36.8-17.3,55.3h-1.7Z"/>
</svg>