<?xml version="1.0" encoding="UTF-8"?>
<svg id="Livello_2" xmlns="http://www.w3.org/2000/svg" version="1.1" viewBox="0 0 35.1 35.1">
  <!-- Generator: Adobe Illustrator 30.1.0, SVG Export Plug-In . SVG Version: 2.1.1 Build 136)  -->
  <defs>
    <style>
      .st0 {
        fill: #191118;
      }
    </style>
  </defs>
  <g id="Livello_1-2">
    <g>
      <path class="st0" d="M12.8,13.8h-2.7v2.5h3c2.1,0,2.4-2.5-.3-2.5Z"/>
      <path class="st0" d="M17.6,0C7.9,0,0,7.9,0,17.6s7.9,17.6,17.6,17.6,17.6-7.9,17.6-17.6S27.3,0,17.6,0ZM12.9,23.8h-5.4v-12.5h5.8c4.6,0,4.7,4.5,2.3,5.8,2.9,1,3,6.7-2.7,6.7h0ZM20.1,11.3h5.8v1.7h-5.8s0-1.7,0-1.7ZM27.6,19.6h-6.7c.1,2.7,2.9,2.8,3.8,1.7h2.6c-.4,1.1-1.7,2.5-4.3,2.5s-4.6-1.4-4.6-4.7,1.9-4.9,4.6-4.9,4.1,1.5,4.5,3.7v1.8h.1Z"/>
      <path class="st0" d="M23,16.1c-1.2,0-1.9.6-2.1,1.9h4.1c0-1.3-1-1.9-2.1-1.9h.1Z"/>
      <path class="st0" d="M12.9,18.8h-2.8v2.5h2.8c2.6,0,2.4-2.5,0-2.5Z"/>
    </g>
  </g>
</svg>