<?xml version="1.0" encoding="UTF-8"?>
<svg id="Livello_2" xmlns="http://www.w3.org/2000/svg" version="1.1" viewBox="0 0 35.1 35.1">
  <!-- Generator: Adobe Illustrator 30.1.0, SVG Export Plug-In . SVG Version: 2.1.1 Build 136)  -->
  <defs>
    <style>
      .st0 {
        fill: #191118;
      }
    </style>
  </defs>
  <g id="Livello_1-2">
    <g>
      <path class="st0" d="M23.5,14.5c0-1.9-1-2.8-2.9-2.9h-6.2c-1.9,0-2.8.9-2.9,2.9v6.2c0,1.9,1,2.8,2.9,2.9h6.2c1.9,0,2.8-1,2.9-2.9v-6.2h0ZM17.6,21.7c-2.3,0-4.2-1.9-4.2-4.2s1.9-4.2,4.2-4.2,4.2,1.9,4.2,4.2-1.9,4.2-4.2,4.2ZM21.6,14.7c-.6,0-1.2-.5-1.2-1.2s.5-1.2,1.2-1.2,1.2.5,1.2,1.2-.5,1.2-1.2,1.2Z"/>
      <path class="st0" d="M17.6,0C7.9,0,0,7.9,0,17.6s7.9,17.6,17.6,17.6,17.6-7.9,17.6-17.6S27.3,0,17.6,0ZM25.4,20.6h0c-.1,3-1.8,4.7-4.7,4.8h-6.4c-2.9-.1-4.5-1.8-4.7-4.7v-6.4c.1-2.9,1.8-4.6,4.7-4.7h6.2c2.9.1,4.5,1.8,4.7,4.7h0v6.1h0l.2.2Z"/>
      <path class="st0" d="M17.6,15.3c-1.3,0-2.3,1-2.3,2.3s1,2.3,2.3,2.3,2.3-1,2.3-2.3-1-2.3-2.3-2.3Z"/>
    </g>
  </g>
</svg>