<?xml version="1.0" encoding="UTF-8"?>
<svg id="Livello_2" xmlns="http://www.w3.org/2000/svg" version="1.1" viewBox="0 0 35.1 35.1">
  <!-- Generator: Adobe Illustrator 30.1.0, SVG Export Plug-In . SVG Version: 2.1.1 Build 136)  -->
  <defs>
    <style>
      .st0 {
        fill: #191118;
      }
    </style>
  </defs>
  <g id="Livello_1-2">
    <path class="st0" d="M17.6,0C7.9,0,0,7.9,0,17.6s7.9,17.6,17.6,17.6,17.6-7.9,17.6-17.6S27.3,0,17.6,0ZM13.2,24.7h-3.3v-10.6h3.3v10.6ZM11.5,12.7c-1.1,0-1.9-.9-1.9-1.9s.9-1.9,1.9-1.9,1.9.9,1.9,1.9-.9,1.9-1.9,1.9ZM25.5,24.7h-3.3v-5.2c0-1.2,0-2.8-1.7-2.8s-2,1.3-2,2.7v5.2h-3.3v-10.6h3.2v1.4h0c.4-.8,1.5-1.7,3.1-1.7,3.3,0,3.9,2.2,3.9,5v5.8h0v.2Z"/>
  </g>
</svg>